/* XPM */
static const char *icon_bochs_xpm[] = {
/* columns rows colors chars-per-pixel */
"32 32 7 1",
"  c black",
". c #800000",
"X c #808000",
"o c yellow",
"O c #808080",
"+ c #c0c0c0",
"@ c None",
/* pixels */
"@@@@@@@@@@@@@@@@@@@@@@@@@@@@@@@@",
"@@@@@@@@@@.    +@@@+  +@@@@@@@@@",
"@@@@@@@@    Oo  @+     .@@@@@@@@",
"@@@@@@    ooooo    ooo.  @@@@@@@",
"@@@@   oooooo.    oooooX   @@@@@",
"@+  XoooooO   XX   ooooooo  O@@@",
"+  oooooO   XXXX X  ooooooo   @@",
"@   ooo   XXXXXX XX   ooooooX   ",
"@@.     XXXXXXXX XXX   Xooooo.  ",
"@@@@  OXXXXXXXXX XXXXXO   oO  .@",
"@@@@    .XXXXXXX XXXXXXX.    @@@",
"@+   oo   XXXX    XXXXXXXX   @@@",
"@   ooooo          XXXXXX      O",
"@@O  oooooo  OXXXX.  XX  Oooo   ",
"@@@@  .ooooo.  XXXXX    oooo  O@",
"@@@@    Oooooo   XX.  .ooo   @@@",
"@@@@ XX   oooooo    .oooo.  @@@@",
"@@@@ ooXX   .        ooO  o @@@@",
"@@@@ oooXX.   .Xo XX    XXo @@@@",
"@@@@ ooooXXXXXXXo XXXX.XXoo @@@@",
"@@@+ oooooooooooo XooXXXooo @@@@",
"@@@. oooooooooooo Xooooooo  @@@@",
"@@@+   oooooooooo XoooooX .@@@@@",
"@@@@@O  XoooooooX ooooo  +@@@@@@",
"@@@@@@@   ooooooX oooX  @@@@@@@@",
"@@@@@@@@@   ooooX oo   @@@@@@@@@",
"@@@@@@@@@@.  Ooo.    O@@@@@@@@@@",
"@@@@@@@@@@@@        @@@@@@@@@@@@",
"@@@@@@@@@@@@@@O   O@@@@@@@@@@@@@",
"@@@@@@@@@@@@@@@@+@@@@@@@@@@@@@@@",
"@@@@@@@@@@@@@@@@@@@@@@@@@@@@@@@@",
"@@@@@@@@@@@@@@@@@@@@@@@@@@@@@@@@"
};
