/* XPM */
static const char *reset_xpm[] = {
/* width height num_colors chars_per_pixel */
"    32    32        2            1",
/* colors */
". c None",
"# c #000000",
/* pixels */
"................................",
".............................#..",
"..####......................#...",
"...#..#...##....###...##..#####.",
"...#..#..#..#..#.....#..#...#...",
"..#.##..#####...##..#####..#....",
"..#..#..#.....#..#..#......#..#.",
".###.##..###..###....###....##..",
"................................",
"................................",
"................................",
"................................",
"................................",
"...............#................",
"..............##................",
".............#######............",
"............#########...........",
".............#########..........",
"........###...##...###..........",
"........###....#...###..........",
"........###........###..........",
"........###........###..........",
"........###........###..........",
"........###........###..........",
"........###........###..........",
"........##############..........",
".........############...........",
"..........##########............",
"................................",
"................................",
"................................",
"................................"
};
