/* XPM */
static const char *userbutton_xpm[] = {
/* columns rows colors chars-per-pixel */
"32 32 2 1",
". c None",
"# c #000000",
/* pixels */
"................................",
"..#....#...####..####..####.....",
"..#....#..#......#.....#...#....",
"..#....#..#......#.....#...#....",
"..#....#...###...####..####.....",
"..#....#......#..#.....##.......",
"..#....#......#..#.....#.##.....",
"...####...####...####..#...#....",
"................................",
"................................",
".............................#..",
"..........................###...",
".........................#......",
"........................#.......",
".......................#........",
".......................#........",
".#############################..",
".#...........................#..",
".#.#.#.#.#.#.#.#.#.#.#...#.#.#..",
".#...........................#..",
".#...........................#..",
".#.#.#.#.#.#.#.#.#.#.#.#.#.#.#..",
".#..#.#.#.#.#.#.#...#...#.#..#..",
".#.#.#.#.#.#.#.#.#.#.#.#.#.#.#..",
".#..#.#.#.#.#.#.#.......#.#..#..",
".#.#.#.#.#.#.#.#.#.....#.#.#.#..",
".#..#.#.#.#.#.#.#...#...#.#..#..",
".#.#.#.#######.#.#.#.#.#.#.#.#..",
".#...........................#..",
".#############################..",
"................................",
"................................"
};
